<svg width="18" height="19" viewBox="0 0 18 19" fill="none" xmlns="http://www.w3.org/2000/svg">
    <g clip-path="url(#clip0_1_26)">
    <path d="M17.64 17.0702L13.56 12.9302C14.44 11.8902 15.01 10.7102 15.27 9.39017C15.53 8.07017 15.46 6.76017 15.06 5.46017C14.66 4.16017 13.95 3.05017 12.93 2.13017C11.91 1.21017 10.74 0.590166 9.41999 0.270166C8.09999 -0.0498333 6.78999 -0.0298328 5.48999 0.330168C4.18999 0.690166 3.04999 1.36017 2.06999 2.34017C1.08999 3.32017 0.419991 4.46017 0.0599912 5.76017C-0.300009 7.06017 -0.320009 8.37017 -8.76188e-06 9.69017C0.319991 11.0102 0.939991 12.1802 1.85999 13.2002C2.77999 14.2202 3.88999 14.9302 5.18999 15.3302C6.48999 15.7302 7.79999 15.8002 9.11999 15.5402C10.44 15.2802 11.64 14.7102 12.72 13.8302L16.8 17.9102C16.92 18.0302 17.06 18.0802 17.22 18.0602C17.38 18.0402 17.51 17.9802 17.61 17.8802C17.71 17.7802 17.77 17.6502 17.79 17.4902C17.81 17.3302 17.76 17.1902 17.64 17.0702ZM1.01999 7.89017C1.01999 6.69017 1.31999 5.59017 1.91999 4.59017C2.51999 3.59017 3.31999 2.79017 4.31999 2.19017C5.31999 1.59017 6.41999 1.29017 7.61999 1.29017C8.81999 1.29017 9.91999 1.59017 10.92 2.19017C11.92 2.79017 12.72 3.59017 13.32 4.59017C13.92 5.59017 14.22 6.69017 14.22 7.89017C14.22 9.09017 13.92 10.1902 13.32 11.1902C12.72 12.1902 11.92 12.9902 10.92 13.5902C9.91999 14.1902 8.81999 14.4902 7.61999 14.4902C6.41999 14.4902 5.31999 14.1902 4.31999 13.5902C3.31999 12.9902 2.51999 12.1902 1.91999 11.1902C1.31999 10.1902 1.01999 9.09017 1.01999 7.89017Z" fill="white"/>
    </g>
    <defs>
    <clipPath id="clip0_1_26">
    <rect width="18" height="18" fill="white" transform="matrix(1 0 0 -1 0 18.0901)"/>
    </clipPath>
    </defs>
</svg>
