<svg width="24" height="25" viewBox="0 0 24 25" fill="none" xmlns="http://www.w3.org/2000/svg">
    <path d="M22.7715 12.4169L21.6482 11.4412V20.6499C21.6482 22.1995 20.3875 23.46 18.8381 23.46H15.4622C15.7456 23.1696 16.0459 22.847 16.348 22.4982C16.6128 22.1926 16.8596 21.8886 17.0892 21.5867H18.8379C19.3544 21.5867 19.7747 21.1664 19.7747 20.6499V9.8143L12 3.0626L4.2252 9.8143V20.6499C4.2252 21.1664 4.6454 21.5867 5.1619 21.5867H6.9108C7.1402 21.8884 7.387 22.1926 7.652 22.4982C7.9541 22.8468 8.2544 23.1696 8.5377 23.46H5.1619C3.6125 23.46 2.3518 22.1995 2.3518 20.6499V11.4412L1.2283 12.4169L0 11.0024L12 0.581299L24 11.0024L22.7715 12.4169ZM12 14.51C11.224 14.51 10.5948 15.139 10.5948 15.915C10.5948 16.691 11.224 17.3201 12 17.3201C12.776 17.3201 13.4052 16.691 13.4052 15.915C13.4052 15.139 12.776 14.51 12 14.51ZM17.3849 16.1991C17.3849 17.6863 16.5597 19.3927 14.9321 21.2714C13.7798 22.6014 12.6392 23.5344 12.5912 23.5734L12 24.0547L11.4086 23.5734C11.3606 23.5344 10.22 22.6014 9.0677 21.2714C7.4401 19.3927 6.6149 17.6863 6.6149 16.1991V15.9186C6.6149 12.9492 9.0306 10.5335 12 10.5335C14.9692 10.5335 17.3849 12.9492 17.3849 15.9186V16.1991ZM15.5116 15.9186C15.5116 13.9823 13.9362 12.4069 12 12.4069C10.0637 12.4069 8.4884 13.9823 8.4884 15.9186V16.1993C8.4884 17.1938 9.197 18.5596 10.4837 20.0447C11.0416 20.6887 11.6006 21.2334 12.0026 21.6033C13.3434 20.3738 15.5114 18.0053 15.5114 16.1993L15.5116 15.9186Z" fill="white"/>
</svg>
